PathFileType	4	(X/Y/Z)	OpenSim_Sub03_EMGStiffKnee_Accel.trc
DataRate	CameraRate	NumFrames	NumMarkers	Units	OrigDataRate	OrigDataStartFrame	OrigNumFrames
100	100	20	8	m	100	5698	7597
Frame#	Time	torso_imu_offset_imu	pelvis_imu_offset_imu	tibia_r_imu_offset_imu	femur_r_imu_offset_imu	tibia_l_imu_offset_imu	femur_l_imu_offset_imu	toes_r_imu_offset_imu	toes_l_imu_offset_imu
				X1	Y1	Z1	X2	Y2	Z2	X3	Y3	Z3	X4	Y4	Z4	X5	Y5	Z5	X6	Y6	Z6	X7	Y7	Z7	X8		Y8	Z8	

5698	56.97000000	11.81190143	1.54513860	4.79763924	11.22809143	-1.35260251	1.80877831	6.92240822	-12.83171799	-2.47925350	9.64763850	8.22671056	9.29600563	12.47268692	-4.45654904	2.30723080	12.31106583	-1.65751695	-0.74836898	8.31949726	-15.46186107	1.04470590	4.48470491	-1.21944331	12.59350520
5699	56.98000000	11.74425098	0.81355931	4.90003678	12.24553282	-0.83913848	3.62902541	10.08124433	-2.78905745	-2.49262440	7.55770703	6.72653702	6.57599472	12.80786634	-3.25975181	1.62781388	13.27662827	-1.29949841	-1.42987825	23.94336825	-11.96839318	10.44888237	4.61554985	-0.98823276	12.72791526
5700	56.99000000	12.39341288	0.30471953	5.26891749	13.16755534	0.11530734	6.03502637	18.94674982	5.80747206	-3.71879854	11.24455597	-2.14568483	-1.63556786	13.97647647	-1.42115784	1.19281896	13.18214117	0.17750778	-2.57286279	33.23617927	11.67712290	21.84149091	5.01876765	-1.06614920	12.38765494
5701	57	13.98401273	0.15031675	5.32733109	14.09180373	2.15661540	7.45140447	20.16052920	17.57697270	-3.76719638	17.20228644	-20.73938959	-15.75147975	14.54759833	1.12880585	0.91996237	12.67420425	1.50173315	-3.04573063	17.63324351	10.34115208	13.34429523	5.33228959	0.63994401	12.43595033
5702	57.01000000	14.97255241	-0.09047882	5.34378052	14.76216722	4.75371346	7.80533163	11.25058429	24.89030182	-1.64378766	19.90138420	-28.74209812	-18.03080948	13.88316161	3.48140844	1.20104509	12.79289454	1.32932270	-1.99930235	11.44328073	-4.91843870	6.77154272	5.75275151	3.34853030	13.00832475
5703	57.02000000	14.47751760	-0.59826133	5.49052808	14.88791737	6.49516108	7.06697015	8.28864947	14.51262552	-0.02348034	16.36158902	-16.23729582	-3.17703011	13.04004496	4.98842495	1.16376696	12.67604591	0.11957990	-0.39468757	12.18726709	-2.48900492	8.01291530	5.91286152	4.66571687	12.96288074
5704	57.03000000	13.56928277	-1.13430874	5.55171883	13.74726454	5.20200995	5.97577781	12.30611697	1.99317377	-0.29503293	11.77301890	2.02765735	3.47418239	11.99920128	5.01040514	0.51426244	12.29936031	-0.65104806	0.40220575	8.04201830	-1.64518449	7.59834278	7.04853993	5.32737782	12.47646751
5705	57.04000000	12.78008602	-1.67535190	5.45593383	12.61469368	1.69971734	5.71403418	11.73901819	-0.59718005	-2.35967788	7.02707589	10.41141864	2.96307691	11.29810296	3.40015420	-0.05170665	11.66807361	-1.38272961	0.56540230	6.94727401	-3.00507569	7.57572164	7.68041008	5.85799855	11.94629477
5706	57.05000000	12.15125319	-2.22863758	5.15692786	12.17536928	-1.63642223	5.92907211	10.21209414	2.34536640	-2.59587230	5.77182863	12.34917667	4.43892248	10.96017534	1.54779137	0.04945857	11.61075296	-2.74033374	0.25296403	7.16662643	-2.61594536	7.98593238	8.71690864	5.77491279	11.98851132
5707	57.06000000	11.65184966	-2.80408555	4.67558555	11.43916448	-3.47176417	5.94431841	9.70756492	7.14689642	-1.98745093	7.86898192	11.20330776	1.01491477	10.38274107	-1.28908936	-0.02720959	11.73177399	-4.13222880	-0.06258343	7.10546391	-3.35707412	7.71885801	8.88918222	5.38918004	11.64680706
5708	57.07000000	11.02469177	-2.69367257	4.24332442	10.21842030	-3.23951831	5.76167329	10.65011784	12.16094020	-1.83696052	10.25852951	7.01744356	-0.74949866	9.47165163	-5.08939149	-0.68021570	11.34334789	-5.04694741	-0.52082187	7.35289618	-2.43456053	8.22213731	9.80601180	4.77807914	10.72820342
5709	57.08000000	10.24021265	-2.46705391	3.69833576	8.81313554	-1.33365303	5.50097943	11.59664083	12.69468613	-1.32367099	11.43733317	2.14501669	-0.60059209	8.56916462	-8.22076664	-1.18458436	11.18574274	-5.35957139	-0.64297377	8.43171090	-0.71273458	8.49729585	8.16873043	2.87600110	18.86437673
5710	57.09000000	9.77290303	-2.34055241	3.31503820	7.76543950	0.81326579	5.10825651	10.80147258	6.17597452	-0.86010236	12.14100681	-2.04620462	-0.92443312	8.30725855	-11.14146364	-1.12416168	11.88501996	-5.08041878	-0.55507866	7.96003838	-1.79008132	7.79698543	-0.28913747	6.25608446	25.18607821
5711	57.10000000	9.71486222	-2.17869611	3.12335770	7.23865884	2.18874336	4.68661281	10.59491613	0.38636722	-1.45179860	10.64920029	-3.39061486	-0.57479701	7.24677807	-8.36615900	-0.83379071	12.36345351	-4.68018934	-0.43464140	6.42577773	-4.19104166	7.54568632	-8.13223747	6.53882744	19.44937842
5712	57.11000000	9.62732207	-2.05897350	3.00775581	7.19145012	2.72938004	4.40190870	10.50324574	-1.29053903	-1.71841221	8.21240090	-2.50737437	-0.31148557	6.33448398	-0.89240373	1.09928660	11.21427719	-4.63152591	0.29491950	5.64744944	-4.72998748	7.99097143	-2.28015452	5.93113154	19.33879752
5713	57.12000000	9.12765083	-1.85263133	2.99222205	7.55954388	2.44460831	4.31182051	10.12351857	-2.11872040	-0.84416059	7.38926128	-2.35049502	-0.69720370	6.86999423	3.22572797	1.84124278	9.68198692	-3.56012778	0.38151241	5.89272854	-3.99204277	7.64492361	-0.96371803	3.54176848	17.18645283
5714	57.13000000	8.47550263	-1.53707328	3.03119116	8.05393915	1.53438764	4.34999772	10.12776165	-2.91406828	-0.10677109	7.81649974	-3.46592078	-0.75492357	7.50598666	3.18900939	0.94760738	7.74829434	-1.35938865	-0.02778188	5.69116718	-4.05789978	6.87167753	-0.46406308	0.50424528	14.22387176
5715	57.14000000	7.76696334	-1.42983285	2.92383488	8.25346024	0.52755348	4.24484874	9.70821378	-2.68941287	1.09093353	8.16051763	-4.79391887	-0.54517096	7.73310288	3.45749703	0.09277840	6.25802200	0.37060963	-0.25005948	5.32628489	-4.14656458	6.81437833	1.98056366	0.25125629	13.27214897
5716	57.15000000	7.22256321	-1.42526305	2.82783958	7.92297674	-0.65292977	4.15382630	9.01867326	-3.09167703	2.12856611	8.22264250	-5.16616061	-0.27093774	7.52582854	3.50701385	0.83293860	6.11145573	0.59732513	0.03267999	4.94817245	-3.35694565	7.51193566	2.42132405	1.08859753	12.00441593
5717	57.16000000	7.00780664	-1.34993037	2.63924294	7.16492022	-1.55578143	4.13727506	9.20928433	-5.30304381	2.40573014	8.19161367	-4.94621456	-0.01082359	7.00345416	3.08932296	1.48536701	6.44032564	-0.29425501	0.35726848	4.17614851	-3.35329653	7.21424622	2.18622756	0.78836290	10.74034504
